<svg xmlns="http://www.w3.org/2000/svg" width="70" height="70" viewBox="0 0 48 48" fill="none">
<g stroke="#1f3d79" stroke-width="2.4" stroke-linecap="round" stroke-linejoin="round" fill="none">

  <g transform="rotate(-36 24 24)">
    <path d="M21 21
      L24 17.5 L27 21 L30 17.5 L33 21 L36 17.5 L39 21
      L45 24
      L39 27 L36 30.5 L33 27 L30 30.5 L27 27 L24 30.5 L21 27
      Z" stroke-width="2.1" />
    <rect x="6" y="17" width="15" height="15" rx="5" />
    <path d="M7 18 V11 A4.5 4.5 0 0 1 15 11 V18" />
    <path d="M6 20 H2 A4.2 4.2 0 0 0 2 28 H6" stroke="#fb6c0d" />
  </g>
</g>
</svg>
