<svg xmlns="http://www.w3.org/2000/svg" width="70" height="70" viewBox="0 0 48 48" fill="none">
<g stroke="#1f3d79" stroke-width="2.4" stroke-linecap="round" stroke-linejoin="round" fill="none">

  <path d="M8 10 h32 a3 3 0 0 1 3 3 v17 a3 3 0 0 1 -3 3 H19 L12 40 V33 H8 a3 3 0 0 1 -3 -3 V13 a3 3 0 0 1 3 -3 Z" />
  <path d="M24 29 c-5.5 -4 -9 -6.6 -9 -10.4 c0 -2.7 2.1 -4.6 4.6 -4.6 c1.8 0 3.2 0.9 4.4 2.6 c1.2 -1.7 2.6 -2.6 4.4 -2.6 c2.5 0 4.6 1.9 4.6 4.6 c0 3.8 -3.5 6.4 -9 10.4 Z" fill="#fb6c0d" stroke="none" />
</g>
</svg>
