<svg xmlns="http://www.w3.org/2000/svg" width="70" height="70" viewBox="0 0 48 48" fill="none">
<g stroke="#1f3d79" stroke-width="2.4" stroke-linecap="round" stroke-linejoin="round" fill="none">

  <rect x="15" y="22.5" width="18" height="3" rx="1.5" />
  <path d="M13 24 H15 M33 24 H35" />
  <rect x="10" y="11" width="3" height="26" rx="1.5" />
  <rect x="35" y="11" width="3" height="26" rx="1.5" />
  <path d="M9 24 H10 M38 24 H39" />
  <rect x="6" y="15" width="3" height="18" rx="1.5" />
  <rect x="39" y="15" width="3" height="18" rx="1.5" />
  <path d="M5 24 H6 M42 24 H43" />
  <rect x="2" y="19" width="3" height="10" rx="1" stroke="#fb6c0d" />
  <rect x="43" y="19" width="3" height="10" rx="1" stroke="#fb6c0d" />
  <path d="M0.5 24 H2 M46 24 H47.5" />
</g>
</svg>
