<svg xmlns="http://www.w3.org/2000/svg" width="70" height="70" viewBox="0 0 48 48" fill="none">
<g stroke="#1f3d79" stroke-width="2.4" stroke-linecap="round" stroke-linejoin="round" fill="none">

  <path d="M6 8 H18 V12 a2 2 0 0 1 0 4 V20 H22 a2 2 0 0 0 4 0 H30 V32 H6 Z" />
  <path d="M6 20 H10 a2 2 0 0 1 4 0 H18" />
  <path d="M18 20 V24 a2 2 0 0 1 0 4 V32" />
  <g transform="translate(5,-6) rotate(25 24 14)">
    <path d="M18 8 H30 V20 H26 a2 2 0 0 1 -4 0 H18 V16 a2 2 0 0 0 0 -4 V8 Z" stroke="#fb6c0d" />
  </g>
</g>
</svg>
